<svg width="26" height="26" viewBox="0 0 26 26" fill="none" xmlns="http://www.w3.org/2000/svg">
<g id="Group 5">
<path id="Line 82" fill-rule="evenodd" clip-rule="evenodd" d="M1.57141 6.84402V16.861C1.57141 17.213 1.85367 17.4984 2.20185 17.4984C2.28689 17.4984 2.37105 17.481 2.44927 17.4472L5.9956 15.9174L1.6713 6.82101C1.65873 6.79457 1.62734 6.78344 1.60119 6.79615C1.58299 6.80499 1.57141 6.8236 1.57141 6.84402Z" fill="#171716" stroke="#171716" stroke-width="2.22448" stroke-linecap="square"/>
<path id="Line 83" fill-rule="evenodd" clip-rule="evenodd" d="M1.64747 7.31871L5.52658 15.4786C5.67183 15.7841 6.02825 15.9213 6.33769 15.7907L17.6751 11.005C17.9964 10.8694 18.1481 10.4961 18.0139 10.1713C18.0091 10.1596 18.004 10.1481 17.9985 10.1368L14.0269 1.92895C13.8796 1.62453 13.5224 1.48988 13.2139 1.62248L1.96901 6.45604C1.64859 6.59377 1.49927 6.96804 1.63551 7.29199C1.63929 7.30099 1.64328 7.3099 1.64747 7.31871Z" stroke="#171716" stroke-width="2.22448" stroke-linecap="square"/>
<path id="Line 84" fill-rule="evenodd" clip-rule="evenodd" d="M12.0259 14.0972V23.7913C12.0259 24.1433 12.3081 24.4286 12.6563 24.4286C12.7401 24.4286 12.8231 24.4117 12.9003 24.379L23.9133 19.705C24.2254 19.5725 24.4285 19.2636 24.4285 18.9214V9.16741C24.4285 8.8154 24.1463 8.53003 23.7981 8.53003C23.7133 8.53003 23.6294 8.54731 23.5514 8.58084L12.5376 13.3151C12.2273 13.4484 12.0259 13.7563 12.0259 14.0972Z" stroke="#171716" stroke-width="2.22448" stroke-linecap="square"/>
</g>
</svg>
